<?xml version="1.0" encoding="UTF-8" standalone="no"?>
<svg
   version="1.1"
   x="0"
   y="0"
   width="1024"
   height="1024"
   viewBox="0 0 1024 1024"
   id="svg1"
   sodipodi:docname="app-icon.svg"
   inkscape:version="1.3.2 (091e20e, 2023-11-25)"
   xmlns:inkscape="http://www.inkscape.org/namespaces/inkscape"
   xmlns:sodipodi="http://sodipodi.sourceforge.net/DTD/sodipodi-0.dtd"
   xmlns="http://www.w3.org/2000/svg"
   xmlns:svg="http://www.w3.org/2000/svg">
  <defs
     id="defs1" />
  <sodipodi:namedview
     id="namedview1"
     pagecolor="#ffffff"
     bordercolor="#000000"
     borderopacity="0.25"
     inkscape:showpageshadow="2"
     inkscape:pageopacity="0.0"
     inkscape:pagecheckerboard="0"
     inkscape:deskcolor="#d1d1d1"
     inkscape:zoom="0.4123449"
     inkscape:cx="824.55246"
     inkscape:cy="13.338349"
     inkscape:window-width="1920"
     inkscape:window-height="1056"
     inkscape:window-x="0"
     inkscape:window-y="24"
     inkscape:window-maximized="0"
     inkscape:current-layer="svg1" />
  <g
     id="g1"
     transform="translate(-8.9526838,12.739273)">
    <path
       d="m 520.95351,926.10385 c -149.33743,0 -286.05626,-73.99521 -367.8632,-198.50539 l 28.57995,-49.50584 c 89.1952,90.55122 211.87183,142.19695 339.28325,142.19695 128.20881,0 251.15124,-52.05569 340.48609,-143.42232 l 27.53929,50.48794 C 807.18996,852.00052 670.39005,926.10385 520.95351,926.10385 M 925.72647,719.45336 860.53409,599.93926 c -4.76633,-8.73526 -15.70455,-11.96537 -24.44883,-7.19003 -8.73526,4.76632 -11.95636,15.70906 -7.19454,24.44432 l 14.43414,26.45808 c -83.13593,89.42946 -200.16325,140.59766 -322.37135,140.59766 -121.09987,0 -237.57306,-50.47893 -320.52879,-138.63797 L 520.84088,90.631461 769.07286,526.791 c 4.924,8.64967 15.9253,11.67705 24.57497,6.75305 8.64967,-4.9195 11.67254,-15.92981 6.74854,-24.57497 L 536.61752,45.486497 c -3.19407,-5.613275 -9.14973,-9.086657 -15.60995,-9.109182 h -0.0541 c -6.4377,0 -12.38885,3.437342 -15.60545,9.010071 L 116.39679,719.07493 c -3.32922,5.76645 -3.20758,12.89342 0.31536,18.54273 87.677,140.59316 238.79392,224.52648 404.24136,224.52648 165.45194,0 316.56886,-83.93332 404.24136,-224.52648 3.43734,-5.51416 3.64007,-12.45642 0.5316,-18.1643"
       fill="#424241"
       id="path29624"
       style="fill:#000000;stroke-width:4.50504" />
    <path
       d="m 796.33283,563.99358 c 0.80189,9.40201 8.6767,16.49294 17.93004,16.49294 0.51808,0 1.03616,-0.027 1.55424,-0.0676 l 2.47777,-0.20723 c 9.91558,-0.84694 17.2678,-9.5732 16.42536,-19.48878 -0.84695,-9.91559 -9.59122,-17.2633 -19.48879,-16.42086 l -2.47326,0.20723 c -9.92009,0.84245 -17.2678,9.5732 -16.42536,19.48428"
       fill="#424241"
       id="path29626"
       style="fill:#000000;stroke-width:4.50504" />
    <path
       d="m 805.11314,750.83994 c -30.44503,25.77782 -64.18324,47.28486 -100.2866,63.91745 -9.0371,4.15815 -12.99252,14.86211 -8.82536,23.89921 3.0409,6.59988 9.55968,10.48773 16.38031,10.48773 2.52282,0 5.08618,-0.5316 7.52791,-1.65786 39.05866,-17.99761 75.56297,-41.25711 108.49478,-69.14779 7.59098,-6.42418 8.53704,-17.7994 2.10835,-25.39489 -6.43319,-7.59999 -17.79939,-8.53704 -25.39939,-2.10385"
       fill="#424241"
       id="path29628"
       style="fill:#000000;stroke-width:4.50504" />
    <path
       d="m 637.95379,839.17468 c -37.90987,10.43367 -77.27488,15.72258 -117.00028,15.72258 -89.92052,0 -176.38116,-26.94012 -250.03399,-77.90559 -8.18115,-5.65832 -19.4077,-3.61303 -25.07503,4.56811 -5.65833,8.18565 -3.61755,19.4122 4.5681,25.06602 79.7076,55.16416 173.25918,84.31174 270.54092,84.31174 42.95101,0 85.53711,-5.72139 126.56447,-17.01552 9.59573,-2.63544 15.23153,-12.55553 12.59158,-22.15126 -2.63995,-9.59122 -12.53752,-15.22702 -22.15577,-12.59608"
       fill="#424241"
       id="path29630"
       style="fill:#000000;stroke-width:4.50504" />
    <path
       d="m 240.32582,754.7413 c -1.0722,-2.00474 -2.54535,-3.83378 -4.40593,-5.3655 -7.1585,-5.91961 -17.95256,-5.61778 -24.5209,0.94606 -3.72567,3.72567 -8.52353,12.94297 -2.06781,22.92613 1.03615,1.89211 2.43272,3.62655 4.18067,5.1042 3.42833,2.89224 7.70811,4.34286 11.97438,4.34286 4.59964,0 9.17676,-1.69389 12.61861,-5.10871 5.16277,-5.10421 7.77569,-14.09175 2.22098,-22.84504"
       fill="#424241"
       id="path29632"
       style="fill:#000000;stroke-width:4.50504" />
    <path
       d="m 670.10173,602.05213 c 22.35849,0 40.54532,18.18232 40.54532,40.54532 0,22.35849 -18.18683,40.54532 -40.54532,40.54532 -22.3585,0 -40.54533,-18.18683 -40.54533,-40.54532 0,-22.363 18.18683,-40.54532 40.54533,-40.54532 m 0,117.13092 c 42.2302,0 76.5856,-34.3599 76.5856,-76.5856 0,-42.23021 -34.3554,-76.58561 -76.5856,-76.58561 -42.23021,0 -76.58561,34.3554 -76.58561,76.58561 0,42.2257 34.3554,76.5856 76.58561,76.5856"
       fill="#424241"
       id="path29634"
       style="fill:#000000;stroke-width:4.50504" />
    <path
       d="m 449.14774,529.29129 c -16.56051,0 -30.03958,-13.46555 -30.03958,-30.03057 0,-16.56051 13.47907,-30.03507 30.03958,-30.03507 16.55601,0 30.03057,13.47456 30.03057,30.03507 0,16.56502 -13.47456,30.03057 -30.03057,30.03057 m 0,-96.10593 c -36.43673,0 -66.07986,29.64314 -66.07986,66.07536 0,36.43223 29.64313,66.07086 66.07986,66.07086 36.42772,0 66.07086,-29.63863 66.07086,-66.07086 0,-36.43222 -29.64314,-66.07536 -66.07086,-66.07536"
       fill="#424241"
       id="path29636"
       style="fill:#000000;stroke-width:4.50504" />
    <path
       d="m 555.11519,274.85138 c 6.50528,0 12.34831,3.86982 14.88014,9.85702 l 0.005,0.009 c 0.83343,1.98221 1.26141,4.09507 1.26141,6.27551 0,8.90195 -7.23959,16.14605 -16.14605,16.14605 -8.90195,0 -16.14154,-7.2441 -16.14154,-16.14605 0,-8.90195 7.23959,-16.14154 16.14154,-16.14154 m 0,68.32788 c 28.77817,0 52.18634,-23.41268 52.18634,-52.18634 0,-7.03236 -1.38305,-13.8665 -4.10859,-20.31321 -8.18565,-19.35813 -27.05725,-31.86862 -48.07775,-31.86862 -28.77366,0 -52.18183,23.40817 -52.18183,52.18183 0,28.77366 23.40817,52.18634 52.18183,52.18634"
       fill="#424241"
       id="path29638"
       style="fill:#000000;stroke-width:4.50504" />
  </g>
</svg>
